<svg xmlns="http://www.w3.org/2000/svg" viewBox="0 0 122.39 122.39"><defs><style>.cls-1{fill:#b2b2b2;}.cls-2{fill:#ededed;}</style></defs><g id="Calque_2" data-name="Calque 2"><g id="Calque_1-2" data-name="Calque 1"><path class="cls-1" d="M73.77,86.82,35.25,64.58a3.9,3.9,0,0,1,0-6.77L73.7,35.6a3.88,3.88,0,0,1,3.87,0A3.83,3.83,0,0,1,79.5,39V83.51a3.81,3.81,0,0,1-5.73,3.31ZM75.2,38.2,36.75,60.4a.91.91,0,0,0,0,1.58L75.27,84.22a.79.79,0,0,0,.82,0,.81.81,0,0,0,.41-.71V39a.86.86,0,0,0-.43-.75,1,1,0,0,0-.44-.12A.85.85,0,0,0,75.2,38.2Z"/><path class="cls-1" d="M0,61.19a61.2,61.2,0,1,1,61.19,61.2A61.26,61.26,0,0,1,0,61.19Zm9,0A52.2,52.2,0,1,0,61.19,9,52.25,52.25,0,0,0,9,61.19Z"/><path class="cls-2" d="M61.19,11.08A50.11,50.11,0,1,1,11.08,61.19,50.17,50.17,0,0,1,61.19,11.08m0-8A58.11,58.11,0,1,0,119.3,61.19,58.11,58.11,0,0,0,61.19,3.08Z"/><path class="cls-2" d="M71,47V75.41L58.69,68.3,46.38,61.19l12.31-7.1L71,47m4.65-10.41a2.32,2.32,0,0,0-1.17.32L55.19,48l-19.4,11.2a2.28,2.28,0,0,0,0,3.94l19.4,11.2L74.51,85.52a2.4,2.4,0,0,0,1.16.31A2.33,2.33,0,0,0,78,83.5V38.92a2.35,2.35,0,0,0-2.35-2.35Z"/></g></g></svg>