<svg xmlns="http://www.w3.org/2000/svg" viewBox="0 0 122.39 122.39"><defs><style>.cls-1{fill:#b2b2b2;}.cls-2{fill:#ededed;}</style></defs><g id="Calque_2" data-name="Calque 2"><g id="Calque_1-2" data-name="Calque 1"><path class="cls-1" d="M43.7,87.34a3.84,3.84,0,0,1-3.82-3.83V39a3.87,3.87,0,0,1,5.8-3.35L84.13,57.81a3.9,3.9,0,0,1,0,6.77L45.61,86.82A3.73,3.73,0,0,1,43.7,87.34Zm0-49.26a.92.92,0,0,0-.43.12.86.86,0,0,0-.44.75V83.51a.81.81,0,0,0,.41.71.8.8,0,0,0,.82,0L82.63,62a.91.91,0,0,0,0-1.58L44.18,38.2A.83.83,0,0,0,43.75,38.08Z"/><path class="cls-1" d="M61.19,122.39a61.2,61.2,0,1,1,61.2-61.2A61.27,61.27,0,0,1,61.19,122.39ZM61.19,9a52.2,52.2,0,1,0,52.2,52.19A52.25,52.25,0,0,0,61.19,9Z"/><path class="cls-2" d="M61.19,11.08A50.11,50.11,0,1,1,11.08,61.19,50.17,50.17,0,0,1,61.19,11.08m0-8A58.11,58.11,0,1,0,119.3,61.19,58.11,58.11,0,0,0,61.19,3.08Z"/><path class="cls-2" d="M48.38,47l12.31,7.11L73,61.19,60.69,68.3,48.38,75.41V47M43.74,36.57a2.35,2.35,0,0,0-2.36,2.35V83.5a2.33,2.33,0,0,0,3.49,2L64.19,74.36l19.4-11.2a2.27,2.27,0,0,0,0-3.94L64.19,48,44.91,36.89a2.32,2.32,0,0,0-1.17-.32Z"/></g></g></svg>